<svg xmlns="http://www.w3.org/2000/svg" style="display: none">
    <defs>
        <symbol id="icon-fire" viewBox="0 0 16 16">
            <path d="M8 16c3.314 0 6-2 6-5.5 0-1.5-.5-4-2.5-6 .25 1.5-1.25 2-1.25 2C11 4 9 .5 6 0c.357 2 .5 4-2 6-1.25 1-2 2.729-2 4.5C2 14 4.686 16 8 16Zm0-1c-1.657 0-3-1-3-2.75 0-.75.25-2 1.25-3C6.125 10 7 10.5 7 10.5c-.375-1.25.5-3.25 2-3.5-.179 1-.25 2 1 3 .625.5 1 1.364 1 2.25C11 14 9.657 15 8 15Z"/>
        </symbol>
        <symbol id="icon-basket-fill" viewBox="0 0 16 16">
            <path d="M5.071 1.243a.5.5 0 0 1 .858.514L3.383 6h9.234L10.07 1.757a.5.5 0 1 1 .858-.514L13.783 6H15.5a.5.5 0 0 1 .5.5v2a.5.5 0 0 1-.5.5H15v5a2 2 0 0 1-2 2H3a2 2 0 0 1-2-2V9H.5a.5.5 0 0 1-.5-.5v-2A.5.5 0 0 1 .5 6h1.717L5.07 1.243zM3.5 10.5a.5.5 0 1 0-1 0v3a.5.5 0 0 0 1 0v-3zm2.5 0a.5.5 0 1 0-1 0v3a.5.5 0 0 0 1 0v-3zm2.5 0a.5.5 0 1 0-1 0v3a.5.5 0 0 0 1 0v-3zm2.5 0a.5.5 0 1 0-1 0v3a.5.5 0 0 0 1 0v-3zm2.5 0a.5.5 0 1 0-1 0v3a.5.5 0 0 0 1 0v-3z"/>
        </symbol>
        <symbol id="icon-search" viewBox="0 0 16 16">
            <path d="M11.742 10.344a6.5 6.5 0 1 0-1.397 1.398h-.001c.03.04.062.078.098.115l3.85 3.85a1 1 0 0 0 1.415-1.414l-3.85-3.85a1.007 1.007 0 0 0-.115-.1zM12 6.5a5.5 5.5 0 1 1-11 0 5.5 5.5 0 0 1 11 0z"/>
        </symbol>
        <symbol id="icon-box-arrow-in-right" viewBox="0 0 16 16">
            <path d="M6 3.5a.5.5 0 0 1 .5-.5h8a.5.5 0 0 1 .5.5v9a.5.5 0 0 1-.5.5h-8a.5.5 0 0 1-.5-.5v-2a.5.5 0 0 0-1 0v2A1.5 1.5 0 0 0 6.5 14h8a1.5 1.5 0 0 0 1.5-1.5v-9A1.5 1.5 0 0 0 14.5 2h-8A1.5 1.5 0 0 0 5 3.5v2a.5.5 0 0 0 1 0v-2z"/>
            <path d="M11.854 8.354a.5.5 0 0 0 0-.708l-3-3a.5.5 0 1 0-.708.708L10.293 7.5H1.5a.5.5 0 0 0 0 1h8.793l-2.147 2.146a.5.5 0 0 0 .708.708l3-3z"/>
        </symbol>
        <symbol id="icon-instagram" viewBox="0 0 16 16">
            <path d="M8 0C5.829 0 5.556.01 4.703.048 3.85.088 3.269.222 2.76.42a3.917 3.917 0 0 0-1.417.923A3.927 3.927 0 0 0 .42 2.76C.222 3.268.087 3.85.048 4.7.01 5.555 0 5.827 0 8.001c0 2.172.01 2.444.048 3.297.04.852.174 1.433.372 1.942.205.526.478.972.923 1.417.444.445.89.719 1.416.923.51.198 1.09.333 1.942.372C5.555 15.99 5.827 16 8 16s2.444-.01 3.298-.048c.851-.04 1.434-.174 1.943-.372a3.916 3.916 0 0 0 1.416-.923c.445-.445.718-.891.923-1.417.197-.509.332-1.09.372-1.942C15.99 10.445 16 10.173 16 8s-.01-2.445-.048-3.299c-.04-.851-.175-1.433-.372-1.941a3.926 3.926 0 0 0-.923-1.417A3.911 3.911 0 0 0 13.24.42c-.51-.198-1.092-.333-1.943-.372C10.443.01 10.172 0 7.998 0h.003zm-.717 1.442h.718c2.136 0 2.389.007 3.232.046.78.035 1.204.166 1.486.275.373.145.64.319.92.599.28.28.453.546.598.92.11.281.24.705.275 1.485.039.843.047 1.096.047 3.231s-.008 2.389-.047 3.232c-.035.78-.166 1.203-.275 1.485a2.47 2.47 0 0 1-.599.919c-.28.28-.546.453-.92.598-.28.11-.704.24-1.485.276-.843.038-1.096.047-3.232.047s-2.39-.009-3.233-.047c-.78-.036-1.203-.166-1.485-.276a2.478 2.478 0 0 1-.92-.598 2.48 2.48 0 0 1-.6-.92c-.109-.281-.24-.705-.275-1.485-.038-.843-.046-1.096-.046-3.233 0-2.136.008-2.388.046-3.231.036-.78.166-1.204.276-1.486.145-.373.319-.64.599-.92.28-.28.546-.453.92-.598.282-.11.705-.24 1.485-.276.738-.034 1.024-.044 2.515-.045v.002zm4.988 1.328a.96.96 0 1 0 0 1.92.96.96 0 0 0 0-1.92zm-4.27 1.122a4.109 4.109 0 1 0 0 8.217 4.109 4.109 0 0 0 0-8.217zm0 1.441a2.667 2.667 0 1 1 0 5.334 2.667 2.667 0 0 1 0-5.334z"/>
        </symbol>
        <symbol id="icon-facebook" viewBox="0 0 16 16">
            <path d="M16 8.049c0-4.446-3.582-8.05-8-8.05C3.58 0-.002 3.603-.002 8.05c0 4.017 2.926 7.347 6.75 7.951v-5.625h-2.03V8.05H6.75V6.275c0-2.017 1.195-3.131 3.022-3.131.876 0 1.791.157 1.791.157v1.98h-1.009c-.993 0-1.303.621-1.303 1.258v1.51h2.218l-.354 2.326H9.25V16c3.824-.604 6.75-3.934 6.75-7.951z"/>
        </symbol>
        <symbol id="icon-youtube" viewBox="0 0 16 16">
            <path d="M8.051 1.999h.089c.822.003 4.987.033 6.11.335a2.01 2.01 0 0 1 1.415 1.42c.101.38.172.883.22 1.402l.01.104.022.26.008.104c.065.914.073 1.77.074 1.957v.075c-.001.194-.01 1.108-.082 2.06l-.008.105-.009.104c-.05.572-.124 1.14-.235 1.558a2.007 2.007 0 0 1-1.415 1.42c-1.16.312-5.569.334-6.18.335h-.142c-.309 0-1.587-.006-2.927-.052l-.17-.006-.087-.004-.171-.007-.171-.007c-1.11-.049-2.167-.128-2.654-.26a2.007 2.007 0 0 1-1.415-1.419c-.111-.417-.185-.986-.235-1.558L.09 9.82l-.008-.104A31.4 31.4 0 0 1 0 7.68v-.123c.002-.215.01-.958.064-1.778l.007-.103.003-.052.008-.104.022-.26.01-.104c.048-.519.119-1.023.22-1.402a2.007 2.007 0 0 1 1.415-1.42c.487-.13 1.544-.21 2.654-.26l.17-.007.172-.006.086-.003.171-.007A99.788 99.788 0 0 1 7.858 2h.193zM6.4 5.209v4.818l4.157-2.408L6.4 5.209z"/>
        </symbol>
        <symbol id="icon-brush" viewBox="0 0 16 16">
            <path d="M15.825.12a.5.5 0 0 1 .132.584c-1.53 3.43-4.743 8.17-7.095 10.64a6.067 6.067 0 0 1-2.373 1.534c-.018.227-.06.538-.16.868-.201.659-.667 1.479-1.708 1.74a8.118 8.118 0 0 1-3.078.132 3.659 3.659 0 0 1-.562-.135 1.382 1.382 0 0 1-.466-.247.714.714 0 0 1-.204-.288.622.622 0 0 1 .004-.443c.095-.245.316-.38.461-.452.394-.197.625-.453.867-.826.095-.144.184-.297.287-.472l.117-.198c.151-.255.326-.54.546-.848.528-.739 1.201-.925 1.746-.896.126.007.243.025.348.048.062-.172.142-.38.238-.608.261-.619.658-1.419 1.187-2.069 2.176-2.67 6.18-6.206 9.117-8.104a.5.5 0 0 1 .596.04z"/>
        </symbol>
        <symbol id="icon-x-circle" viewBox="0 0 16 16">
            <path d="M8 15A7 7 0 1 1 8 1a7 7 0 0 1 0 14zm0 1A8 8 0 1 0 8 0a8 8 0 0 0 0 16z"/>
            <path d="M4.646 4.646a.5.5 0 0 1 .708 0L8 7.293l2.646-2.647a.5.5 0 0 1 .708.708L8.707 8l2.647 2.646a.5.5 0 0 1-.708.708L8 8.707l-2.646 2.647a.5.5 0 0 1-.708-.708L7.293 8 4.646 5.354a.5.5 0 0 1 0-.708z"/>
        </symbol>
        <symbol id="icon-check-square" viewBox="0 0 16 16">
            <path d="M14 1a1 1 0 0 1 1 1v12a1 1 0 0 1-1 1H2a1 1 0 0 1-1-1V2a1 1 0 0 1 1-1h12zM2 0a2 2 0 0 0-2 2v12a2 2 0 0 0 2 2h12a2 2 0 0 0 2-2V2a2 2 0 0 0-2-2H2z"/>
            <path d="M10.97 4.97a.75.75 0 0 1 1.071 1.05l-3.992 4.99a.75.75 0 0 1-1.08.02L4.324 8.384a.75.75 0 1 1 1.06-1.06l2.094 2.093 3.473-4.425a.235.235 0 0 1 .02-.022z"/>
        </symbol>
        <symbol id="icon-cart-icon" viewBox="0 0 16 16">
            <path d="M16 11V7a4 4 0 00-8 0v4M5 9h14l1 12H4L5 9z"/>
        </symbol>
        <symbol id="icon-minus" viewBox="0 0 16 16">
            <path d="M15.4895 8.3125H3.51055C2.8834 8.3125 2.375 8.84316 2.375 9.5C2.375 10.1568 2.8834 10.6875 3.51055 10.6875H15.4895C16.1166 10.6875 16.625 10.1568 16.625 9.5C16.625 8.84316 16.1166 8.3125 15.4895 8.3125Z"/>
        </symbol>
        <symbol id="icon-plus" viewBox="0 0 16 16">
            <path d="M13.125 6.5625H8.4375V1.875C8.4375 1.3575 8.0175 0.9375 7.5 0.9375C6.9825 0.9375 6.5625 1.3575 6.5625 1.875V6.5625H1.875C1.3575 6.5625 0.9375 6.9825 0.9375 7.5C0.9375 8.0175 1.3575 8.4375 1.875 8.4375H6.5625V13.125C6.5625 13.6425 6.9825 14.0625 7.5 14.0625C8.0175 14.0625 8.4375 13.6425 8.4375 13.125V8.4375H13.125C13.6425 8.4375 14.0625 8.0175 14.0625 7.5C14.0625 6.9825 13.6425 6.5625 13.125 6.5625Z"/>
        </symbol>
        <symbol id="icon-close" viewBox="0 0 16 16">
            <path d="M16 8A8 8 0 1 1 0 8a8 8 0 0 1 16 0zM5.354 4.646a.5.5 0 1 0-.708.708L7.293 8l-2.647 2.646a.5.5 0 0 0 .708.708L8 8.707l2.646 2.647a.5.5 0 0 0 .708-.708L8.707 8l2.647-2.646a.5.5 0 0 0-.708-.708L8 7.293 5.354 4.646z"/>
        </symbol>
    </defs>
</svg>